<?xml version="1.0" encoding="UTF-8"?>
<svg id="Layer_2" data-name="Layer 2" xmlns="http://www.w3.org/2000/svg" xmlns:xlink="http://www.w3.org/1999/xlink" viewBox="0 0 1014.54 170.81">
  <defs>
    <style>
      .cls-1 {
        clip-path: url(#clippath-1);
      }

      .cls-2 {
        clip-path: url(#clippath);
      }

      .cls-3 {
        fill: none;
      }

      .cls-4 {
        fill: #3f83f8;
      }
    </style>
    <clipPath id="clippath">
      <rect class="cls-3" x="975.81" y="44.16" width="38.73" height="18.98"/>
    </clipPath>
    <clipPath id="clippath-1">
      <rect class="cls-3" width="171.39" height="170.81"/>
    </clipPath>
  </defs>
  <g id="Layer_1-2" data-name="Layer 1">
    <g>
      <g class="cls-2">
        <path class="cls-4" d="M981.62,47.47h-5.81v-3.31h15.59v3.31h-5.81v15.67h-3.97v-15.67Zm12.35,15.67v-18.98h4.95l5.22,12.75h.22l5.23-12.75h4.94v18.98h-3.89v-12.35h-.16l-4.91,12.26h-2.65l-4.92-12.3h-.16v12.4h-3.89Z"/>
      </g>
      <path class="cls-4" d="M253.82,85.51l41.33,40.2h-20.7l-32.8-32.87h-10.26v-14.68h10.26l32.8-32.88h20.7l-41.33,40.23Zm-28.28-40.23V125.71h-14.57V45.29h14.57Zm152.6,65.84v14.59h-66.5c-1.05,0-2.03-.18-2.92-.55-.9-.38-1.68-.9-2.34-1.56-.65-.64-1.16-1.41-1.54-2.32-.37-.89-.55-1.86-.55-2.92V45.29h14.59V111.12h59.27Zm90.97-5.88v2.8c0,1.79-.31,3.72-.92,5.77-.62,2.07-1.64,3.97-3.03,5.72-1.41,1.76-3.23,3.23-5.47,4.41-2.25,1.18-5,1.77-8.25,1.77h-55.36c-1.04,0-2.01-.18-2.91-.55-.89-.38-1.66-.9-2.32-1.56-.66-.64-1.17-1.41-1.54-2.32-.38-.89-.57-1.86-.57-2.92V52.64c0-1.01,.19-1.97,.57-2.87,.37-.89,.88-1.67,1.54-2.34,.66-.67,1.43-1.2,2.32-1.59,.9-.37,1.88-.55,2.91-.55h48.79c1.79,0,3.72,.32,5.79,.96,2.05,.63,3.97,1.65,5.75,3.05,1.77,1.4,3.25,3.22,4.43,5.47,1.18,2.24,1.77,4.98,1.77,8.25v2.73c0,2.59-.43,5.37-1.31,8.34-.86,2.97-2.24,5.78-4.13,8.43,1.64,1.01,3.18,2.23,4.62,3.65,1.44,1.43,2.7,3.07,3.79,4.94,1.09,1.87,1.95,3.98,2.57,6.34,.64,2.34,.97,4.94,.97,7.79h0Zm-14.59,2.69v-2.69c0-1.91-.3-3.63-.89-5.14-.6-1.5-1.44-2.79-2.53-3.88-1.09-1.09-2.39-1.92-3.93-2.5-1.53-.58-3.25-.87-5.14-.87h-32.87v-14.68h26.3c1.9,0,3.62-.29,5.17-.88,1.53-.58,2.84-1.41,3.91-2.5,1.09-1.09,1.92-2.38,2.5-3.88,.58-1.52,.88-3.24,.88-5.15v-2.73c0-2.1-1.01-3.14-3.04-3.14h-41.55v51.25h48.12c.26,0,.57-.02,.94-.05,.38-.05,.72-.16,1.01-.34,.31-.18,.57-.5,.78-.94,.23-.46,.34-1.08,.34-1.86h0Zm141.88-5.88c0,2.88-.36,5.47-1.08,7.77-.73,2.3-1.7,4.32-2.89,6.09-1.2,1.75-2.59,3.24-4.2,4.48-1.61,1.24-3.27,2.25-4.98,3.03-1.73,.78-3.48,1.36-5.26,1.75-1.78,.37-3.45,.55-5.01,.55h-56.26v-14.59h56.26c2.8,0,4.98-.82,6.52-2.46,1.56-1.66,2.34-3.86,2.34-6.62,0-1.35-.21-2.58-.62-3.7-.41-1.13-1-2.11-1.77-2.92-.77-.82-1.7-1.46-2.8-1.91-1.1-.46-2.33-.69-3.67-.69h-33.54c-2.36,0-4.9-.42-7.62-1.27-2.73-.84-5.26-2.2-7.61-4.07-2.34-1.87-4.29-4.31-5.84-7.33-1.55-3.03-2.32-6.74-2.32-11.12s.77-8.05,2.32-11.07c1.55-3.02,3.49-5.47,5.84-7.35,2.34-1.89,4.88-3.25,7.61-4.09,2.72-.84,5.26-1.27,7.62-1.27h49.62v14.59h-49.62c-2.77,0-4.93,.84-6.48,2.53-1.55,1.68-2.32,3.9-2.32,6.66s.77,5.02,2.32,6.64c1.55,1.64,3.7,2.46,6.48,2.46h33.66c1.56,.03,3.22,.25,4.98,.64,1.76,.38,3.51,.98,5.24,1.81,1.74,.83,3.4,1.87,4.96,3.13,1.58,1.24,2.97,2.74,4.18,4.5,1.23,1.76,2.19,3.78,2.9,6.06,.7,2.28,1.06,4.86,1.06,7.74h0Zm83.96-56.77v14.59h-32.14V125.71h-14.59V59.88h-32.19v-14.59h78.91Zm93.98,32.53v15.37c0,4.9-.84,9.4-2.5,13.51-1.68,4.12-4.03,7.67-7.03,10.66-2.98,3-6.52,5.33-10.61,6.98-4.1,1.67-8.57,2.5-13.39,2.5h-19.74c-4.82,0-9.29-.83-13.39-2.5-4.12-1.65-7.68-3.98-10.66-6.98-3-2.99-5.35-6.54-7.05-10.66-1.7-4.11-2.55-8.61-2.55-13.51v-15.37c0-4.86,.85-9.35,2.55-13.49,1.7-4.14,4.05-7.69,7.05-10.66,2.98-2.97,6.54-5.3,10.66-6.98,4.1-1.68,8.57-2.53,13.39-2.53h19.74c4.82,0,9.29,.84,13.39,2.53,4.09,1.68,7.63,4.01,10.61,6.98,3,2.97,5.35,6.52,7.03,10.66,1.67,4.13,2.5,8.63,2.5,13.49h0Zm-14.57,15.37v-15.37c0-2.88-.46-5.49-1.37-7.84-.92-2.33-2.22-4.32-3.88-6-1.66-1.65-3.65-2.94-6-3.86-2.33-.92-4.9-1.38-7.72-1.38h-19.74c-2.83,0-5.42,.46-7.76,1.38-2.34,.92-4.36,2.21-6.04,3.86-1.67,1.67-2.96,3.67-3.88,6-.92,2.34-1.38,4.96-1.38,7.84v15.37c0,2.88,.46,5.49,1.38,7.83,.92,2.33,2.21,4.33,3.88,6,1.68,1.66,3.7,2.94,6.04,3.86,2.34,.92,4.93,1.38,7.76,1.38h19.64c2.84,0,5.42-.46,7.76-1.38,2.33-.92,4.34-2.2,6.02-3.86,1.68-1.67,2.98-3.67,3.91-6,.92-2.34,1.37-4.95,1.37-7.83h0Zm109.35-30.16v9.3c0,3.32-.41,6.29-1.24,8.91-.81,2.62-1.92,4.92-3.33,6.91-1.4,2.01-3.01,3.72-4.85,5.14-1.84,1.43-3.75,2.59-5.74,3.49-2.01,.92-4.03,1.59-6.07,2-2.04,.41-3.95,.62-5.74,.62l30.44,26.3h-22.54l-30.39-26.3h-10.5v-14.59h32.99c1.82-.15,3.49-.54,5.01-1.15s2.83-1.44,3.93-2.48c1.1-1.06,1.95-2.32,2.55-3.79,.6-1.49,.9-3.18,.9-5.08v-9.21c0-.81-.1-1.43-.3-1.86-.2-.43-.46-.75-.78-.96-.32-.2-.66-.32-1.01-.37-.35-.03-.68-.04-.99-.04h-48.12V125.71h-14.57V52.64c0-1.01,.18-1.97,.55-2.87,.37-.89,.88-1.67,1.54-2.34,.66-.67,1.43-1.2,2.32-1.59,.91-.37,1.88-.55,2.92-.55h55.36c3.25,0,6,.59,8.25,1.77,2.24,1.18,4.06,2.66,5.47,4.43,1.41,1.78,2.42,3.69,3.03,5.74,.61,2.05,.92,3.98,.92,5.79h0Zm80.77,15.14v14.68h-46.06v-14.68h46.06Zm6.55,32.96v14.59h-52.61c-2.02,0-4.23-.35-6.61-1.05-2.39-.72-4.6-1.89-6.64-3.52-2.04-1.62-3.74-3.74-5.1-6.34-1.38-2.61-2.07-5.79-2.07-9.56V52.64c0-1.01,.19-1.97,.57-2.87,.37-.89,.88-1.67,1.54-2.34,.66-.67,1.43-1.2,2.32-1.59,.91-.37,1.88-.55,2.92-.55h65.68v14.59h-58.44v45.37c0,1.9,.5,3.36,1.52,4.37,1.01,1.01,2.49,1.52,4.43,1.52h52.49Z"/>
      <path class="cls-4" d="M27.42,21.23c0-3.25-2.74-6-6-6s-6,2.74-6,6,2.74,6,6,6,6-2.74,6-6h0Zm-10.29,0c0-2.4,1.89-4.28,4.29-4.28s4.29,1.88,4.29,4.28-1.88,4.29-4.29,4.29-4.29-1.88-4.29-4.29h0Z"/>
      <path class="cls-4" d="M24,21.23c0-1.37-1.2-2.57-2.57-2.57s-2.57,1.2-2.57,2.57,1.2,2.57,2.57,2.57,2.57-1.2,2.57-2.57h0Zm-3.43,0c0-.51,.34-.86,.86-.86s.86,.34,.86,.86-.34,.86-.86,.86-.86-.34-.86-.86h0Z"/>
      <g class="cls-1">
        <path class="cls-4" d="M166.25-.19h-61.7c-2.91,0-5.14,2.23-5.14,5.14V52.93h-18.85V16.95c0-4.8-3.77-8.57-8.57-8.57H17.14c-4.8,0-8.57,3.77-8.57,8.57v49.7c-4.8,0-8.57,3.77-8.57,8.57v87.41c0,4.8,3.77,8.57,8.57,8.57H63.41c4.8,0,8.57-3.77,8.57-8.57h87.41c6.68,0,12-5.31,12-12,0-.17,0-.34-.17-.69,0,0,0-.17-.17-.17,0-.17-.17-.17-.17-.34l-.17-.17-.17-.17-24.16-16.11c.68-.86,1.03-1.88,1.03-2.91v-6.86h18.85c2.91,0,5.14-2.23,5.14-5.14V4.95c0-2.91-2.23-5.14-5.14-5.14h0ZM71.98,126.63h66.84V61.5H32.56v5.14h-5.14v-5.14c0-2.91,2.23-5.14,5.14-5.14h106.26c2.91,0,5.14,2.23,5.14,5.14v68.55c0,1.03-.68,1.72-1.71,1.72H71.98v-5.14ZM12,16.95c0-2.91,2.23-5.14,5.14-5.14h54.85c2.91,0,5.14,2.23,5.14,5.14V52.93H32.56c-4.8,0-8.57,3.77-8.57,8.57v5.14H12V16.95Zm56.56,145.68c0,2.91-2.23,5.14-5.14,5.14H8.57c-2.91,0-5.14-2.23-5.14-5.14V75.22c0-2.91,2.23-5.14,5.14-5.14H63.41c2.91,0,5.14,2.23,5.14,5.14v87.41Zm-5.14-95.98h-29.14v-3.43h102.83v61.7H71.98v-49.7c0-4.8-3.77-8.57-8.57-8.57h0Zm95.98,92.55H71.98v-6.86h.17c.68,2.91,3.43,5.15,6.68,5.15h13.71c3.25,0,5.83-2.23,6.68-5.15h68.56c-.86,3.94-4.29,6.86-8.4,6.86h0Zm-83.98-8.57h20.57c0,1.88-1.54,3.43-3.43,3.43h-13.71c-1.89,0-3.43-1.54-3.43-3.43h0Zm88.61-1.71H71.98v-13.71h71.47l20.57,13.71Zm3.94-30.85c0,1.03-.68,1.71-1.71,1.71h-18.85V61.5c0-4.8-3.77-8.57-8.57-8.57h-35.99v-10.28h65.13V118.06Zm0-78.84H102.83V4.95c0-1.03,.69-1.71,1.71-1.71h61.7c1.03,0,1.71,.68,1.71,1.71V39.22Z"/>
      </g>
      <path class="cls-4" d="M161.1,6.66h-51.42c-1.88,0-3.42,1.54-3.42,3.43s1.54,3.43,3.42,3.43h51.42c1.89,0,3.43-1.54,3.43-3.43s-1.54-3.43-3.43-3.43h0Zm0,5.14h-51.42c-1.03,0-1.71-.68-1.71-1.71s.68-1.72,1.71-1.72h51.42c1.03,0,1.72,.68,1.72,1.72s-.69,1.71-1.72,1.71h0Z"/>
      <path class="cls-4" d="M161.1,16.95h-51.42c-1.88,0-3.42,1.54-3.42,3.43s1.54,3.43,3.42,3.43h51.42c1.89,0,3.43-1.54,3.43-3.43s-1.54-3.43-3.43-3.43h0Zm0,5.14h-51.42c-1.03,0-1.71-.69-1.71-1.72s.68-1.71,1.71-1.71h51.42c1.03,0,1.72,.69,1.72,1.71s-.69,1.72-1.72,1.72h0Z"/>
      <path class="cls-4" d="M161.1,52.93c1.89,0,3.43-1.54,3.43-3.43s-1.54-3.43-3.43-3.43-3.43,1.54-3.43,3.43,1.54,3.43,3.43,3.43h0Zm0-5.14c1.03,0,1.72,.69,1.72,1.71s-.69,1.72-1.72,1.72-1.71-.69-1.71-1.72,.69-1.71,1.71-1.71h0Z"/>
      <path class="cls-4" d="M87.24,98.52c.17,0,.51,0,.68-.17l24.17-24.16c.34-.34,.34-.86,0-1.2-.34-.34-.86-.34-1.2,0l-24.16,24.16c-.34,.34-.34,.86,0,1.2,.17,.17,.34,.17,.52,.17h0Z"/>
      <path class="cls-4" d="M87.24,106.92c.17,0,.51,0,.68-.17l24.17-24.16c.34-.34,.34-.85,0-1.2-.34-.34-.86-.34-1.2,0l-24.16,23.99c-.34,.34-.34,.86,0,1.2,.17,.34,.34,.34,.52,.34h0Z"/>
      <path class="cls-4" d="M6.85,150.63h58.27V75.22H6.85v75.41Zm1.72-73.7H63.41v71.98H8.57V76.93Z"/>
      <path class="cls-4" d="M35.99,154.05c-2.91,0-5.14,2.23-5.14,5.14s2.23,5.14,5.14,5.14,5.14-2.23,5.14-5.14-2.23-5.14-5.14-5.14h0Zm0,8.57c-1.89,0-3.43-1.54-3.43-3.43s1.54-3.43,3.43-3.43,3.43,1.54,3.43,3.43-1.54,3.43-3.43,3.43h0Z"/>
      <path class="cls-4" d="M31.71,73.5h8.57c.51,0,.86-.34,.86-.86s-.34-.86-.86-.86h-8.57c-.52,0-.86,.34-.86,.86s.34,.86,.86,.86h0Z"/>
    </g>
  </g>
</svg>